<svg width="68" height="27" viewBox="0 0 68 27" fill="none" xmlns="http://www.w3.org/2000/svg">
<mask id="path-1-inside-1_293_43" fill="white">
<path d="M10.25 2.75C10.7465 2.75 11.2365 2.86129 11.6846 3.0752C12.0786 3.2642 12.4403 3.57193 12.9453 4.00293L13.0244 4.06934C13.5041 4.47899 13.963 4.67258 14.6035 4.72363L14.7061 4.73242C15.3679 4.78541 15.841 4.82182 16.2529 4.96777C16.7212 5.1332 17.1468 5.40186 17.498 5.75293C17.8491 6.10395 18.1176 6.52903 18.2832 6.99707C18.4282 7.40902 18.4646 7.88206 18.5176 8.54395L18.5264 8.64648C18.5774 9.28704 18.772 9.74586 19.1807 10.2256L19.2471 10.3037C19.6781 10.8097 19.9868 11.1714 20.1748 11.5654C20.3887 12.0135 20.5 12.5035 20.5 13C20.5 13.4965 20.3887 13.9865 20.1748 14.4346C20.1475 14.4914 20.1172 14.5475 20.085 14.6035L20.0947 22.0879C20.0949 22.2866 20.0154 22.4774 19.875 22.6182C19.7347 22.7588 19.5444 22.8385 19.3457 22.8389L11.832 22.8477C11.7832 22.8751 11.7341 22.9012 11.6846 22.9248C11.2365 23.1387 10.7465 23.25 10.25 23.25C9.75351 23.25 9.26347 23.1387 8.81543 22.9248C8.42143 22.7358 8.05969 22.4281 7.55469 21.9971L7.47559 21.9307C7.03977 21.538 6.48231 21.3072 5.89648 21.2764L5.79395 21.2676C5.13206 21.2146 4.65902 21.1782 4.24707 21.0322C3.77882 20.8668 3.3532 20.5981 3.00195 20.2471C2.65085 19.8961 2.38241 19.471 2.2168 19.0029C2.07184 18.591 2.03541 18.1179 1.98242 17.4561L1.97363 17.3535C1.9428 16.7677 1.71202 16.2102 1.31934 15.7744L1.25293 15.6953C0.82193 15.1903 0.513195 14.8286 0.325195 14.4346C0.111286 13.9865 1.77712e-08 13.4965 0 13C0 12.5035 0.111286 12.0135 0.325195 11.5654C0.514195 11.1714 0.82193 10.8097 1.25293 10.3047L1.31934 10.2256C1.71202 9.78977 1.9428 9.23231 1.97363 8.64648L1.98242 8.54395C2.03541 7.88206 2.07182 7.40902 2.21777 6.99707C2.3832 6.52882 2.65186 6.1032 3.00293 5.75195C3.35395 5.40085 3.77903 5.13241 4.24707 4.9668C4.65902 4.82184 5.13206 4.78541 5.79395 4.73242L5.89648 4.72363C6.48231 4.6928 7.03977 4.46202 7.47559 4.06934L7.55371 4.00293C8.05971 3.57193 8.42143 3.2632 8.81543 3.0752C9.26347 2.86129 9.75351 2.75 10.25 2.75Z"/>
</mask>
<path d="M10.25 2.75C10.7465 2.75 11.2365 2.86129 11.6846 3.0752C12.0786 3.2642 12.4403 3.57193 12.9453 4.00293L13.0244 4.06934C13.5041 4.47899 13.963 4.67258 14.6035 4.72363L14.7061 4.73242C15.3679 4.78541 15.841 4.82182 16.2529 4.96777C16.7212 5.1332 17.1468 5.40186 17.498 5.75293C17.8491 6.10395 18.1176 6.52903 18.2832 6.99707C18.4282 7.40902 18.4646 7.88206 18.5176 8.54395L18.5264 8.64648C18.5774 9.28704 18.772 9.74586 19.1807 10.2256L19.2471 10.3037C19.6781 10.8097 19.9868 11.1714 20.1748 11.5654C20.3887 12.0135 20.5 12.5035 20.5 13C20.5 13.4965 20.3887 13.9865 20.1748 14.4346C20.1475 14.4914 20.1172 14.5475 20.085 14.6035L20.0947 22.0879C20.0949 22.2866 20.0154 22.4774 19.875 22.6182C19.7347 22.7588 19.5444 22.8385 19.3457 22.8389L11.832 22.8477C11.7832 22.8751 11.7341 22.9012 11.6846 22.9248C11.2365 23.1387 10.7465 23.25 10.25 23.25C9.75351 23.25 9.26347 23.1387 8.81543 22.9248C8.42143 22.7358 8.05969 22.4281 7.55469 21.9971L7.47559 21.9307C7.03977 21.538 6.48231 21.3072 5.89648 21.2764L5.79395 21.2676C5.13206 21.2146 4.65902 21.1782 4.24707 21.0322C3.77882 20.8668 3.3532 20.5981 3.00195 20.2471C2.65085 19.8961 2.38241 19.471 2.2168 19.0029C2.07184 18.591 2.03541 18.1179 1.98242 17.4561L1.97363 17.3535C1.9428 16.7677 1.71202 16.2102 1.31934 15.7744L1.25293 15.6953C0.82193 15.1903 0.513195 14.8286 0.325195 14.4346C0.111286 13.9865 1.77712e-08 13.4965 0 13C0 12.5035 0.111286 12.0135 0.325195 11.5654C0.514195 11.1714 0.82193 10.8097 1.25293 10.3047L1.31934 10.2256C1.71202 9.78977 1.9428 9.23231 1.97363 8.64648L1.98242 8.54395C2.03541 7.88206 2.07182 7.40902 2.21777 6.99707C2.3832 6.52882 2.65186 6.1032 3.00293 5.75195C3.35395 5.40085 3.77903 5.13241 4.24707 4.9668C4.65902 4.82184 5.13206 4.78541 5.79395 4.73242L5.89648 4.72363C6.48231 4.6928 7.03977 4.46202 7.47559 4.06934L7.55371 4.00293C8.05971 3.57193 8.42143 3.2632 8.81543 3.0752C9.26347 2.86129 9.75351 2.75 10.25 2.75Z" fill="#0047E1"/>
<path d="M10.25 2.75V1.75V1.75V2.75ZM11.6846 3.0752L12.1171 2.17356L12.1154 2.17277L11.6846 3.0752ZM12.9453 4.00293L12.2961 4.76359L12.3023 4.76882L12.9453 4.00293ZM13.0244 4.06934L13.6738 3.30885L13.6674 3.30344L13.0244 4.06934ZM14.6035 4.72363L14.6889 3.72727L14.683 3.72679L14.6035 4.72363ZM14.7061 4.73242L14.6207 5.72878L14.6262 5.72923L14.7061 4.73242ZM16.2529 4.96777L15.919 5.91036L15.9198 5.91066L16.2529 4.96777ZM17.498 5.75293L18.2051 5.04574L18.205 5.04565L17.498 5.75293ZM18.2832 6.99707L19.2265 6.66514L19.2259 6.66349L18.2832 6.99707ZM18.5176 8.54395L17.5208 8.62375L17.5212 8.62935L18.5176 8.54395ZM18.5264 8.64648L19.5232 8.56704L19.5227 8.56108L18.5264 8.64648ZM19.1807 10.2256L19.9426 9.57794L19.9419 9.57712L19.1807 10.2256ZM19.2471 10.3037L18.4851 10.9514L18.4858 10.9521L19.2471 10.3037ZM20.1748 11.5654L19.2723 11.9961L19.2724 11.9963L20.1748 11.5654ZM20.5 13H21.5V13H20.5ZM20.1748 14.4346L21.0764 14.8671L21.0772 14.8654L20.1748 14.4346ZM20.085 14.6035L19.2183 14.1047L19.0846 14.3369L19.085 14.6048L20.085 14.6035ZM20.0947 22.0879L21.0947 22.0872V22.0866L20.0947 22.0879ZM19.875 22.6182L20.5828 23.3246L20.583 23.3244L19.875 22.6182ZM19.3457 22.8389L19.3469 23.8389L19.3476 23.8389L19.3457 22.8389ZM11.832 22.8477L11.8309 21.8477L11.5696 21.848L11.3419 21.976L11.832 22.8477ZM11.6846 22.9248L11.2539 22.0223L11.2537 22.0224L11.6846 22.9248ZM10.25 23.25V24.25V24.25V23.25ZM8.81543 22.9248L8.38292 23.8264L8.38458 23.8272L8.81543 22.9248ZM7.55469 21.9971L8.20389 21.2364L8.19766 21.2312L7.55469 21.9971ZM7.47559 21.9307L6.80619 22.6736L6.8192 22.6853L6.83262 22.6966L7.47559 21.9307ZM5.89648 21.2764L5.81108 22.2727L5.82749 22.2741L5.84393 22.275L5.89648 21.2764ZM5.79395 21.2676L5.87935 20.2712L5.87375 20.2708L5.79395 21.2676ZM4.24707 21.0322L4.58103 20.0896L4.58018 20.0893L4.24707 21.0322ZM3.00195 20.2471L2.29493 20.9543L2.29502 20.9544L3.00195 20.2471ZM2.2168 19.0029L1.27349 19.3349L1.27407 19.3365L2.2168 19.0029ZM1.98242 17.4561L2.97925 17.3762L2.97877 17.3707L1.98242 17.4561ZM1.97363 17.3535L0.975015 17.4061L0.97588 17.4225L0.977286 17.4389L1.97363 17.3535ZM1.31934 15.7744L0.553445 16.4174L0.564705 16.4308L0.576428 16.4438L1.31934 15.7744ZM1.25293 15.6953L2.01885 15.0523L2.01357 15.0461L1.25293 15.6953ZM0.325195 14.4346L1.22772 14.0039L1.22762 14.0037L0.325195 14.4346ZM0 13H-1V13H0ZM0.325195 11.5654L-0.576436 11.1329L-0.577229 11.1346L0.325195 11.5654ZM1.25293 10.3047L2.01359 10.9539L2.01882 10.9477L1.25293 10.3047ZM1.31934 10.2256L0.576428 9.55619L0.564705 9.5692L0.553445 9.58262L1.31934 10.2256ZM1.97363 8.64648L0.977286 8.56108L0.97588 8.57749L0.975015 8.59393L1.97363 8.64648ZM1.98242 8.54395L2.97878 8.62935L2.97923 8.62375L1.98242 8.54395ZM2.21777 6.99707L3.16036 7.33103L3.16066 7.33018L2.21777 6.99707ZM3.00293 5.75195L2.29574 5.04493L2.29565 5.04502L3.00293 5.75195ZM4.24707 4.9668L3.91514 4.02349L3.91349 4.02407L4.24707 4.9668ZM5.79395 4.73242L5.87375 5.72925L5.87935 5.72877L5.79395 4.73242ZM5.89648 4.72363L5.84393 3.72501L5.82749 3.72588L5.81108 3.72729L5.89648 4.72363ZM7.47559 4.06934L6.82794 3.3074L6.81693 3.31676L6.80619 3.32643L7.47559 4.06934ZM7.55371 4.00293L8.20136 4.76487L8.20215 4.7642L7.55371 4.00293ZM8.81543 3.0752L9.24607 3.97772L9.24628 3.97762L8.81543 3.0752ZM10.25 2.75V3.75C10.597 3.75 10.9399 3.82777 11.2537 3.97762L11.6846 3.0752L12.1154 2.17277C11.5332 1.8948 10.896 1.75 10.25 1.75V2.75ZM11.6846 3.0752L11.2521 3.97683C11.5039 4.09764 11.76 4.306 12.2961 4.76357L12.9453 4.00293L13.5945 3.24229C13.1206 2.83786 12.6532 2.43075 12.1171 2.17357L11.6846 3.0752ZM12.9453 4.00293L12.3023 4.76882L12.3814 4.83523L13.0244 4.06934L13.6674 3.30344L13.5883 3.23704L12.9453 4.00293ZM13.0244 4.06934L12.375 4.8298C13.0139 5.37533 13.6718 5.65255 14.5241 5.72047L14.6035 4.72363L14.683 3.72679C14.2541 3.69262 13.9944 3.58265 13.6738 3.30888L13.0244 4.06934ZM14.6035 4.72363L14.5181 5.71998L14.6207 5.72877L14.7061 4.73242L14.7915 3.73608L14.6889 3.72729L14.6035 4.72363ZM14.7061 4.73242L14.6262 5.72923C15.3337 5.78587 15.6576 5.81775 15.919 5.91036L16.2529 4.96777L16.5869 4.02519C16.0244 3.82589 15.4022 3.78495 14.7859 3.73561L14.7061 4.73242ZM16.2529 4.96777L15.9198 5.91066C16.247 6.02625 16.545 6.21423 16.7911 6.46021L17.498 5.75293L18.205 5.04565C17.7486 4.58948 17.1954 4.24015 16.586 4.02489L16.2529 4.96777ZM17.498 5.75293L16.791 6.46012C17.0369 6.70595 17.2247 7.00346 17.3405 7.33065L18.2832 6.99707L19.2259 6.66349C19.0105 6.05461 18.6614 5.50194 18.2051 5.04574L17.498 5.75293ZM18.2832 6.99707L17.3399 7.329C17.4323 7.59152 17.4642 7.91665 17.5208 8.62375L18.5176 8.54395L19.5144 8.46414C19.465 7.84746 19.424 7.22652 19.2265 6.66514L18.2832 6.99707ZM18.5176 8.54395L17.5212 8.62935L17.53 8.73189L18.5264 8.64648L19.5227 8.56108L19.5139 8.45854L18.5176 8.54395ZM18.5264 8.64648L17.5295 8.72593C17.5975 9.5792 17.8763 10.2365 18.4194 10.8741L19.1807 10.2256L19.9419 9.57712C19.6677 9.25527 19.5573 8.99488 19.5232 8.56704L18.5264 8.64648ZM19.1807 10.2256L18.4187 10.8732L18.4851 10.9514L19.2471 10.3037L20.009 9.65606L19.9426 9.57794L19.1807 10.2256ZM19.2471 10.3037L18.4858 10.9521C18.9453 11.4916 19.1528 11.7457 19.2723 11.9961L20.1748 11.5654L21.0773 11.1348C20.8208 10.5972 20.4109 10.1279 20.0083 9.65528L19.2471 10.3037ZM20.1748 11.5654L19.2724 11.9963C19.4222 12.3101 19.5 12.653 19.5 13H20.5H21.5C21.5 12.354 21.3552 11.7168 21.0772 11.1346L20.1748 11.5654ZM20.5 13H19.5C19.5 13.347 19.4222 13.6899 19.2724 14.0037L20.1748 14.4346L21.0772 14.8654C21.3552 14.2832 21.5 13.646 21.5 13H20.5ZM20.1748 14.4346L19.2732 14.0021C19.2598 14.03 19.2421 14.0632 19.2183 14.1047L20.085 14.6035L20.9517 15.1024C20.9922 15.0319 21.0353 14.9528 21.0764 14.8671L20.1748 14.4346ZM20.085 14.6035L19.085 14.6048L19.0947 22.0892L20.0947 22.0879L21.0947 22.0866L21.085 14.6022L20.085 14.6035ZM20.0947 22.0879L19.0947 22.0885C19.0947 22.02 19.1218 21.9572 19.167 21.912L19.875 22.6182L20.583 23.3244C20.9089 22.9977 21.095 22.5533 21.0947 22.0872L20.0947 22.0879ZM19.875 22.6182L19.1672 21.9118C19.2126 21.8662 19.2757 21.839 19.3438 21.8389L19.3457 22.8389L19.3476 23.8389C19.8131 23.838 20.2567 23.6513 20.5828 23.3246L19.875 22.6182ZM19.3457 22.8389L19.3445 21.8389L11.8309 21.8477L11.832 22.8477L11.8332 23.8477L19.3469 23.8389L19.3457 22.8389ZM11.832 22.8477L11.3419 21.976C11.3066 21.9959 11.278 22.0108 11.2539 22.0223L11.6846 22.9248L12.1152 23.8273C12.1903 23.7915 12.2598 23.7544 12.3221 23.7193L11.832 22.8477ZM11.6846 22.9248L11.2537 22.0224C10.9399 22.1722 10.597 22.25 10.25 22.25V23.25V24.25C10.896 24.25 11.5332 24.1052 12.1154 23.8272L11.6846 22.9248ZM10.25 23.25V22.25C9.90302 22.25 9.56014 22.1722 9.24628 22.0224L8.81543 22.9248L8.38458 23.8272C8.9668 24.1052 9.60401 24.25 10.25 24.25V23.25ZM8.81543 22.9248L9.24794 22.0232C8.99609 21.9024 8.74 21.694 8.20387 21.2364L7.55469 21.9971L6.90551 22.7577C7.37938 23.1621 7.84677 23.5692 8.38292 23.8264L8.81543 22.9248ZM7.55469 21.9971L8.19766 21.2312L8.11856 21.1648L7.47559 21.9307L6.83262 22.6966L6.91172 22.763L7.55469 21.9971ZM7.47559 21.9307L8.14498 21.1878C7.53866 20.6414 6.76334 20.3206 5.94904 20.2778L5.89648 21.2764L5.84393 22.275C6.20128 22.2938 6.54089 22.4345 6.80619 22.6736L7.47559 21.9307ZM5.89648 21.2764L5.98189 20.28L5.87935 20.2712L5.79395 21.2676L5.70854 22.2639L5.81108 22.2727L5.89648 21.2764ZM5.79395 21.2676L5.87375 20.2708C5.16631 20.2141 4.84242 20.1822 4.58103 20.0896L4.24707 21.0322L3.91311 21.9748C4.47562 22.1741 5.09782 22.215 5.71414 22.2644L5.79395 21.2676ZM4.24707 21.0322L4.58018 20.0893C4.25299 19.9737 3.95498 19.7858 3.70889 19.5398L3.00195 20.2471L2.29502 20.9544C2.75141 21.4105 3.30465 21.7598 3.91396 21.9751L4.24707 21.0322ZM3.00195 20.2471L3.70897 19.5399C3.46309 19.2941 3.27529 18.9965 3.15952 18.6694L2.2168 19.0029L1.27407 19.3365C1.48953 19.9454 1.83862 20.4981 2.29493 20.9543L3.00195 20.2471ZM2.2168 19.0029L3.1601 18.671C3.06773 18.4085 3.03584 18.0833 2.97923 17.3762L1.98242 17.4561L0.985611 17.5359C1.03498 18.1525 1.07596 18.7735 1.27349 19.3349L2.2168 19.0029ZM1.98242 17.4561L2.97877 17.3707L2.96998 17.2681L1.97363 17.3535L0.977286 17.4389L0.986075 17.5415L1.98242 17.4561ZM1.97363 17.3535L2.97225 17.301C2.92939 16.4867 2.60857 15.7113 2.06224 15.105L1.31934 15.7744L0.576428 16.4438C0.815481 16.7091 0.956208 17.0487 0.975015 17.4061L1.97363 17.3535ZM1.31934 15.7744L2.08523 15.1314L2.01882 15.0523L1.25293 15.6953L0.487039 16.3383L0.553445 16.4174L1.31934 15.7744ZM1.25293 15.6953L2.01357 15.0461C1.55464 14.5084 1.34707 14.2541 1.22772 14.0039L0.325195 14.4346L-0.577326 14.8652C-0.320678 15.4031 0.0892208 15.8722 0.492293 16.3445L1.25293 15.6953ZM0.325195 14.4346L1.22762 14.0037C1.07777 13.6899 1 13.347 1 13H0H-1C-1 13.646 -0.855198 14.2832 -0.577229 14.8654L0.325195 14.4346ZM0 13H1C1 12.653 1.07777 12.3101 1.22762 11.9963L0.325195 11.5654L-0.577229 11.1346C-0.855198 11.7168 -1 12.354 -1 13H0ZM0.325195 11.5654L1.22683 11.9979C1.34764 11.7461 1.556 11.49 2.01357 10.9539L1.25293 10.3047L0.492293 9.65551C0.0878614 10.1294 -0.319246 10.5968 -0.576435 11.1329L0.325195 11.5654ZM1.25293 10.3047L2.01882 10.9477L2.08523 10.8686L1.31934 10.2256L0.553445 9.58262L0.487039 9.66172L1.25293 10.3047ZM1.31934 10.2256L2.06224 10.895C2.60857 10.2887 2.92939 9.51334 2.97225 8.69904L1.97363 8.64648L0.975015 8.59393C0.956208 8.95128 0.815481 9.29089 0.576428 9.55619L1.31934 10.2256ZM1.97363 8.64648L2.96998 8.73189L2.97877 8.62935L1.98242 8.54395L0.986075 8.45854L0.977286 8.56108L1.97363 8.64648ZM1.98242 8.54395L2.97923 8.62375C3.03587 7.91631 3.06775 7.59242 3.16036 7.33103L2.21777 6.99707L1.27519 6.66311C1.07589 7.22562 1.03495 7.84782 0.985611 8.46414L1.98242 8.54395ZM2.21777 6.99707L3.16066 7.33018C3.27625 7.00299 3.46423 6.70498 3.71021 6.45889L3.00293 5.75195L2.29565 5.04502C1.83948 5.50141 1.49015 6.05465 1.27489 6.66396L2.21777 6.99707ZM3.00293 5.75195L3.71012 6.45897C3.95595 6.21309 4.25346 6.02529 4.58065 5.90952L4.24707 4.9668L3.91349 4.02407C3.30461 4.23953 2.75194 4.58862 2.29574 5.04493L3.00293 5.75195ZM4.24707 4.9668L4.579 5.9101C4.84152 5.81772 5.16665 5.78584 5.87375 5.72923L5.79395 4.73242L5.71414 3.73561C5.09746 3.78498 4.47652 3.82596 3.91514 4.02349L4.24707 4.9668ZM5.79395 4.73242L5.87935 5.72877L5.98189 5.71998L5.89648 4.72363L5.81108 3.72729L5.70854 3.73608L5.79395 4.73242ZM5.89648 4.72363L5.94904 5.72225C6.76334 5.67939 7.53866 5.35857 8.14498 4.81224L7.47559 4.06934L6.80619 3.32643C6.54089 3.56548 6.20128 3.70621 5.84393 3.72501L5.89648 4.72363ZM7.47559 4.06934L8.12323 4.83128L8.20136 4.76487L7.55371 4.00293L6.90606 3.24099L6.82794 3.3074L7.47559 4.06934ZM7.55371 4.00293L8.20215 4.7642C8.74155 4.30474 8.99565 4.09721 9.24607 3.97772L8.81543 3.0752L8.38478 2.17267C7.84721 2.42918 7.37787 2.83911 6.90528 3.24166L7.55371 4.00293ZM8.81543 3.0752L9.24628 3.97762C9.56014 3.82777 9.90302 3.75 10.25 3.75V2.75V1.75C9.60401 1.75 8.9668 1.8948 8.38458 2.17277L8.81543 3.0752Z" fill="black" mask="url(#path-1-inside-1_293_43)"/>
<path d="M19.7602 15.0382C19.766 14.8825 19.7098 14.7358 19.604 14.6302C19.4981 14.5246 19.4998 14.0841 19.3441 14.0904L11.2603 22.0102C11.2544 22.1659 11.7371 22.3055 11.8429 22.411C11.9488 22.5166 12.0957 22.5724 12.2513 22.5662L18.8969 22.2954C19.0525 22.2889 19.2042 22.221 19.3184 22.1064C19.4327 21.9919 19.5003 21.8401 19.5063 21.6844L19.7602 15.0382Z" fill="black"/>
<path d="M9.678 16.136C9.782 16.216 9.938 16.256 10.146 16.256V17.48C9.842 17.48 9.59 17.432 9.39 17.336C9.19 17.24 9.03 17.088 8.91 16.88C8.614 17.04 8.27 17.12 7.878 17.12C7.27 17.12 6.778 16.936 6.402 16.568C6.026 16.192 5.838 15.7 5.838 15.092V10.508C5.838 9.9 6.026 9.412 6.402 9.044C6.778 8.668 7.27 8.48 7.878 8.48C8.486 8.48 8.978 8.668 9.354 9.044C9.73 9.412 9.918 9.9 9.918 10.508V15.092C9.918 15.484 9.838 15.832 9.678 16.136ZM8.646 10.508C8.646 10.244 8.578 10.04 8.442 9.896C8.306 9.752 8.118 9.68 7.878 9.68C7.638 9.68 7.45 9.752 7.314 9.896C7.178 10.04 7.11 10.244 7.11 10.508V15.092C7.11 15.356 7.178 15.56 7.314 15.704C7.45 15.848 7.638 15.92 7.878 15.92C8.118 15.92 8.306 15.848 8.442 15.704C8.578 15.56 8.646 15.356 8.646 15.092V10.508ZM13.2335 17.12C12.6255 17.12 12.1335 16.936 11.7575 16.568C11.3815 16.192 11.1935 15.7 11.1935 15.092V10.508C11.1935 9.9 11.3815 9.412 11.7575 9.044C12.1335 8.668 12.6255 8.48 13.2335 8.48C13.8415 8.48 14.3335 8.668 14.7095 9.044C15.0855 9.412 15.2735 9.9 15.2735 10.508V15.092C15.2735 15.7 15.0855 16.192 14.7095 16.568C14.3335 16.936 13.8415 17.12 13.2335 17.12ZM13.2335 15.92C13.4735 15.92 13.6615 15.848 13.7975 15.704C13.9335 15.56 14.0015 15.356 14.0015 15.092V10.508C14.0015 10.244 13.9335 10.04 13.7975 9.896C13.6615 9.752 13.4735 9.68 13.2335 9.68C12.9935 9.68 12.8055 9.752 12.6695 9.896C12.5335 10.04 12.4655 10.244 12.4655 10.508V15.092C12.4655 15.356 12.5335 15.56 12.6695 15.704C12.8055 15.848 12.9935 15.92 13.2335 15.92Z" fill="black"/>
<path d="M30.63 18.56C30.8033 18.6933 31.0633 18.76 31.41 18.76V20.8C30.9033 20.8 30.4833 20.72 30.15 20.56C29.8167 20.4 29.55 20.1467 29.35 19.8C28.8567 20.0667 28.2833 20.2 27.63 20.2C26.6167 20.2 25.7967 19.8933 25.17 19.28C24.5433 18.6533 24.23 17.8333 24.23 16.82V9.18C24.23 8.16667 24.5433 7.35333 25.17 6.74C25.7967 6.11333 26.6167 5.8 27.63 5.8C28.6433 5.8 29.4633 6.11333 30.09 6.74C30.7167 7.35333 31.03 8.16667 31.03 9.18V16.82C31.03 17.4733 30.8967 18.0533 30.63 18.56ZM28.91 9.18C28.91 8.74 28.7967 8.4 28.57 8.16C28.3433 7.92 28.03 7.8 27.63 7.8C27.23 7.8 26.9167 7.92 26.69 8.16C26.4633 8.4 26.35 8.74 26.35 9.18V16.82C26.35 17.26 26.4633 17.6 26.69 17.84C26.9167 18.08 27.23 18.2 27.63 18.2C28.03 18.2 28.3433 18.08 28.57 17.84C28.7967 17.6 28.91 17.26 28.91 16.82V9.18ZM36.5558 20.2C35.5424 20.2 34.7224 19.8933 34.0958 19.28C33.4691 18.6533 33.1558 17.8333 33.1558 16.82V9.18C33.1558 8.16667 33.4691 7.35333 34.0958 6.74C34.7224 6.11333 35.5424 5.8 36.5558 5.8C37.5691 5.8 38.3891 6.11333 39.0158 6.74C39.6424 7.35333 39.9558 8.16667 39.9558 9.18V16.82C39.9558 17.8333 39.6424 18.6533 39.0158 19.28C38.3891 19.8933 37.5691 20.2 36.5558 20.2ZM36.5558 18.2C36.9558 18.2 37.2691 18.08 37.4958 17.84C37.7224 17.6 37.8358 17.26 37.8358 16.82V9.18C37.8358 8.74 37.7224 8.4 37.4958 8.16C37.2691 7.92 36.9558 7.8 36.5558 7.8C36.1558 7.8 35.8424 7.92 35.6158 8.16C35.3891 8.4 35.2758 8.74 35.2758 9.18V16.82C35.2758 17.26 35.3891 17.6 35.6158 17.84C35.8424 18.08 36.1558 18.2 36.5558 18.2ZM51.7453 6V20H49.6253V10.4L47.6453 20H46.1653L44.1853 10.4V20H42.1053V6H45.1053L46.9453 14.94L48.7053 6H51.7453ZM54.0584 6H56.1784V20H54.0584V6ZM61.412 14.24L60.612 15.78V20H58.492V6H60.612V11.68L63.412 6H65.692L62.712 11.94L65.912 20H63.632L61.412 14.24Z" fill="black"/>
</svg>
